<svg width="2648" height="1681" viewBox="0 0 2648 1681" fill="none" xmlns="http://www.w3.org/2000/svg">
<path d="M210.576 947.645C237.989 715.227 430.533 504.272 610.023 352.187C813.662 179.253 1066.25 52.9252 1338.43 10.6116C1568.82 -24.9565 1792.04 30.2353 1972.19 155.949C2025.71 193.358 2075.97 236.898 2121.01 285.957C2173.22 342.989 2220.86 407.992 2260.03 477.902C2338.35 615.882 2384.69 772.871 2374.25 924.955C2369.68 997.317 2355.32 1069.68 2331.83 1138.97C2274.39 1303.32 2160.17 1444.99 2013.31 1548.62C1963.7 1583.58 1907.57 1614.24 1847.53 1637.55C1721.56 1686.6 1579.27 1701.32 1455.25 1643.67C1313.63 1577.44 1252.92 1391.64 1091.06 1366.48C1012.73 1354.22 936.369 1386.11 860.003 1405.74C711.843 1443.76 508.855 1463.38 385.498 1367.71C250.39 1263.46 191.648 1108.31 210.576 947.645Z" fill="#FAFAFB"/>
<path d="M2643.21 1444.99C2643.21 1512.5 2597.91 1566.05 2542.02 1566.05C2541.05 1566.05 2532.38 1566.05 2472.63 1566.05C2430.23 1566.05 2362.77 1566.05 2255.81 1566.05H2204.73C2137.28 1568.38 2083.31 1503.19 2083.31 1424.03C2083.31 1344.86 2137.28 1279.67 2205.7 1283.17C2264.48 1061.98 2532.38 1093.41 2555.51 1321.58C2605.62 1330.9 2643.21 1382.12 2643.21 1444.99Z" fill="url(#paint0_linear_4_1263)"/>
<path d="M2542.02 1567.22C2597.92 1567.22 2643.21 1512.5 2643.21 1446.14C2643.21 1378.62 2597.92 1325.07 2542.02 1325.07C2486.13 1325.07 2440.84 1379.78 2440.84 1446.14C2440.84 1512.5 2486.13 1567.22 2542.02 1567.22Z" fill="url(#paint1_linear_4_1263)"/>
<path d="M2377.22 1568.37C2476.48 1568.37 2557.43 1471.75 2557.43 1351.84C2557.43 1231.93 2476.48 1135.32 2377.22 1135.32C2277.96 1135.32 2197.02 1231.93 2197.02 1351.84C2197.02 1470.59 2277.01 1568.37 2377.22 1568.37Z" fill="url(#paint2_linear_4_1263)"/>
<path d="M640.703 526.293C640.703 603.518 588.987 665.126 525.06 665.126C523.623 665.126 514.286 665.126 445.332 665.126C397.206 665.126 320.351 665.126 197.526 665.126H138.627C61.7717 666.862 0 593.107 0 502.864C0 412.623 61.7717 338.001 140.063 342.339C206.863 89.8371 514.286 125.413 540.144 386.593C597.606 395.27 640.703 454.273 640.703 526.293Z" fill="url(#paint3_linear_4_1263)"/>
<path d="M525.049 665.124C588.976 665.124 640.692 602.65 640.692 526.292C640.692 449.933 588.976 387.459 525.049 387.459C461.123 387.459 409.407 449.933 409.407 526.292C409.407 602.65 461.123 665.124 525.049 665.124Z" fill="url(#paint4_linear_4_1263)"/>
<path d="M336.15 666.859C449.637 666.859 542.295 555.793 542.295 418.695C542.295 281.598 449.637 170.531 336.15 170.531C222.662 170.531 130.005 281.598 130.005 418.695C130.005 555.793 221.944 666.859 336.15 666.859Z" fill="url(#paint5_linear_4_1263)"/>
<path d="M1334.58 1355.74C1630.09 1355.74 1869.65 1116.21 1869.65 819.704C1869.65 523.196 1629.02 283.668 1334.58 283.668C1039.08 283.668 799.517 523.196 799.517 819.704C799.517 1116.21 1039.08 1355.74 1334.58 1355.74Z" fill="#EAEEF9"/>
<path d="M1927.76 266.719H1831.4" stroke="#D6DCE8" stroke-width="2" stroke-miterlimit="10"/>
<path d="M1937.58 649.871C1961.47 649.871 1980.85 630.502 1980.85 606.608C1980.85 582.715 1961.47 563.346 1937.58 563.346C1913.68 563.346 1894.31 582.715 1894.31 606.608C1894.31 630.502 1913.68 649.871 1937.58 649.871Z" fill="#EAEEF9"/>
<path d="M2000.9 481.043C2017.22 481.043 2030.45 467.816 2030.45 451.499C2030.45 435.182 2017.22 421.953 2000.9 421.953C1984.57 421.953 1971.34 435.182 1971.34 451.499C1971.34 467.816 1984.57 481.043 2000.9 481.043Z" fill="#EAEEF9"/>
<path d="M823.789 468.321C840.109 468.321 853.338 455.093 853.338 438.775C853.338 422.458 840.109 409.23 823.789 409.23C807.468 409.23 794.238 422.458 794.238 438.775C794.238 455.093 807.468 468.321 823.789 468.321Z" fill="#F1F3F9"/>
<path d="M643.323 1038.13C673.632 1038.13 698.202 1013.56 698.202 983.257C698.202 952.954 673.632 928.387 643.323 928.387C613.014 928.387 588.444 952.954 588.444 983.257C588.444 1013.56 613.014 1038.13 643.323 1038.13Z" fill="#EAEEF9"/>
<path d="M1374 551.4C1584.09 551.4 1754.4 466.245 1754.4 361.2C1754.4 256.155 1584.09 171 1374 171C1163.91 171 993.6 256.155 993.6 361.2C993.6 466.245 1163.91 551.4 1374 551.4Z" fill="#838AA2"/>
<path d="M993.6 645.943V931.577C993.6 1036.74 1163.91 1122 1374 1122C1584.09 1122 1754.4 1036.74 1754.4 931.577V645.943C1754.4 751.109 1584.09 836.366 1374 836.366C1163.91 836.366 993.6 751.109 993.6 645.943Z" fill="#C8D2DA"/>
<path d="M993.6 361.199V646.166C993.6 751.085 1163.91 836.143 1374 836.143C1584.09 836.143 1754.4 751.085 1754.4 646.166V361.199C1754.4 466.121 1584.09 551.177 1374 551.177C1163.91 551.177 993.6 466.121 993.6 361.199Z" fill="#ACB2C5"/>
<path d="M1636.82 891.644C1677.3 865.595 1725.03 851.008 1775.87 851.008C1914.92 851.008 2028.03 963.537 2028.03 1103.16C2028.03 1242.78 1914.92 1355.31 1775.87 1355.31C1636.82 1355.31 1523.71 1242.78 1523.71 1103.16C1521.64 1014.59 1567.3 937.489 1636.82 891.644Z" fill="url(#paint6_linear_4_1263)"/>
<path d="M1768.95 1147.59C1761.58 1147.59 1756.05 1142.05 1755.12 1134.63L1751.44 1105.93C1750.51 1096.67 1755.12 1090.19 1764.34 1089.27C1795.71 1086.49 1812.3 1074.45 1812.3 1053.17C1812.3 1034.65 1798.46 1021.69 1774.49 1021.69C1756.97 1021.69 1743.13 1028.17 1729.31 1040.21C1725.62 1042.99 1721.92 1044.83 1717.31 1044.83C1712.42 1044.82 1707.74 1042.86 1704.29 1039.39C1700.83 1035.92 1698.89 1031.22 1698.87 1026.31C1698.87 1021.69 1700.71 1016.13 1705.33 1012.43C1722.85 995.77 1744.98 984.654 1775.41 984.654C1821.52 984.654 1852.87 1010.57 1852.87 1052.25V1053.17C1852.87 1094.83 1822.44 1114.27 1786.47 1119.83L1785.55 1134.63C1784.63 1142.05 1779.1 1147.59 1771.72 1147.59H1768.95ZM1768.95 1171.67C1782.78 1171.67 1792.01 1181.85 1792.01 1194.81V1198.51C1792.04 1201.56 1791.46 1204.58 1790.32 1207.4C1789.17 1210.23 1787.47 1212.79 1785.32 1214.94C1783.18 1217.1 1780.62 1218.8 1777.81 1219.95C1775 1221.11 1771.99 1221.68 1768.95 1221.65C1755.12 1221.65 1745.91 1211.47 1745.91 1198.51V1194.81C1745.91 1181.85 1755.12 1171.67 1768.95 1171.67Z" fill="white"/>
<defs>
<linearGradient id="paint0_linear_4_1263" x1="2363.37" y1="1313.09" x2="2363.11" y2="1571.41" gradientUnits="userSpaceOnUse">
<stop stop-color="white"/>
<stop offset="0.9964" stop-color="#ECEFF3"/>
</linearGradient>
<linearGradient id="paint1_linear_4_1263" x1="2430.25" y1="1297.18" x2="2538.51" y2="1395.2" gradientUnits="userSpaceOnUse">
<stop stop-color="#BECADE"/>
<stop offset="0.9942" stop-color="white" stop-opacity="0"/>
</linearGradient>
<linearGradient id="paint2_linear_4_1263" x1="2178.3" y1="1256.97" x2="2325.83" y2="1304.76" gradientUnits="userSpaceOnUse">
<stop stop-color="#E2E7EE"/>
<stop offset="0.9942" stop-color="white" stop-opacity="0"/>
</linearGradient>
<linearGradient id="paint3_linear_4_1263" x1="320.467" y1="375.153" x2="320.162" y2="670.708" gradientUnits="userSpaceOnUse">
<stop stop-color="white"/>
<stop offset="0.9964" stop-color="#ECEFF3"/>
</linearGradient>
<linearGradient id="paint4_linear_4_1263" x1="396.975" y1="356.958" x2="520.844" y2="469.1" gradientUnits="userSpaceOnUse">
<stop stop-color="#BECADE"/>
<stop offset="0.9942" stop-color="white" stop-opacity="0"/>
</linearGradient>
<linearGradient id="paint5_linear_4_1263" x1="108.706" y1="310.941" x2="277.516" y2="365.626" gradientUnits="userSpaceOnUse">
<stop stop-color="#E2E7EE"/>
<stop offset="0.9942" stop-color="white" stop-opacity="0"/>
</linearGradient>
<linearGradient id="paint6_linear_4_1263" x1="1775.88" y1="868.527" x2="1775.88" y2="1151.58" gradientUnits="userSpaceOnUse">
<stop stop-color="#B0BACC"/>
<stop offset="1" stop-color="#969EAE"/>
</linearGradient>
</defs>
</svg>
